<?xml version="1.0" encoding="iso-8859-1"?>
<!-- Generator: Adobe Illustrator 19.0.0, SVG Export Plug-In . SVG Version: 6.00 Build 0)  -->
<svg version="1.1" id="Layer_1" xmlns="http://www.w3.org/2000/svg" xmlns:xlink="http://www.w3.org/1999/xlink" x="0px" y="0px"
	 viewBox="0 0 512 512" style="enable-background:new 0 0 512 512;" xml:space="preserve">
<path style="fill:#C29178;" d="M306.25,202.283l-56.623-56.619c-14.868-14.869-38.975-14.87-53.845-0.001
	c-14.869,14.868-14.866,38.975,0.003,53.845c14.866,14.865,38.972,14.869,53.841,0.001l29.699,29.697
	c7.433,7.434,19.486,7.434,26.921,0.002C313.682,221.77,313.682,209.716,306.25,202.283z"/>
<rect x="225.773" y="169.195" transform="matrix(-0.7071 0.7071 -0.7071 -0.7071 726.959 189.5626)" style="fill:#FFBF9E;" width="196.894" height="152.289"/>
<polygon style="opacity:0.1;enable-background:new    ;" points="255.997,205.882 266.667,195.21 374.354,302.9 363.82,313.436 "/>
<rect x="369.579" y="109.62" transform="matrix(-0.7071 0.7071 -0.7071 -0.7071 786.5174 45.7438)" style="opacity:0.1;enable-background:new    ;" width="28.412" height="152.289"/>
<rect x="382.184" y="82.968" transform="matrix(-0.7071 0.7071 -0.7071 -0.7071 832.8889 1.0527)" style="fill:#E0E0D3;" width="68.085" height="180.111"/>
<circle style="fill:#5C6670;" cx="464.391" cy="221.177" r="7.647"/>
<path style="fill:#C29178;" d="M363.858,313.473L172.006,121.885L64.318,229.574L255.904,421.16
	c7.433,7.432,19.49,7.433,26.924-0.001c7.431-7.432,7.433-19.487,0-26.922c7.433,7.434,19.486,7.433,26.922,0
	c7.432-7.434,7.434-19.489,0.002-26.922c7.432,7.433,19.486,7.434,26.917,0.001c7.436-7.434,7.436-19.489,0.002-26.923
	c7.434,7.434,19.487,7.434,26.923,0C371.027,332.962,371.292,320.907,363.858,313.473z"/>
<path style="opacity:0.1;enable-background:new    ;" d="M198.322,209.713c-7.433,7.434-7.433,19.487,0.002,26.923
	c7.433,7.433,19.487,7.432,26.92-0.001l30.755-30.755l-26.921-26.922L198.322,209.713z"/>
<rect x="113.997" y="109.627" transform="matrix(0.7071 0.7071 -0.7071 0.7071 168.91 -36.2421)" style="opacity:0.1;enable-background:new    ;" width="28.413" height="152.289"/>
<rect x="61.728" y="82.957" transform="matrix(0.7071 0.7071 -0.7071 0.7071 150.3884 -17.0455)" style="fill:#E0E0D3;" width="68.085" height="180.111"/>
<circle style="fill:#5C6670;" cx="47.611" cy="221.177" r="7.646"/>
<g>
	<circle style="fill:#FFBF9E;" cx="161.864" cy="326.936" r="19.037"/>
	<circle style="fill:#FFBF9E;" cx="188.788" cy="353.86" r="19.037"/>
	<path style="fill:#FFBF9E;" d="M215.71,361.742c-10.513,0-19.037,8.523-19.036,19.035c-0.001,10.515,8.523,19.039,19.039,19.038
		c10.511,0.001,19.034-8.524,19.033-19.035C234.746,370.265,226.224,361.742,215.71,361.742z"/>
	<circle style="fill:#FFBF9E;" cx="242.636" cy="407.697" r="19.036"/>
	<path style="fill:#FFBF9E;" d="M316.216,145.663c-14.869-14.869-38.977-14.869-53.846,0.001l-56.621,56.619
		c-7.432,7.433-7.432,19.487,0.003,26.924c7.433,7.432,19.487,7.432,26.921-0.002l29.698-29.697
		c14.87,14.868,38.976,14.864,53.842-0.001C331.083,184.639,331.086,160.53,316.216,145.663z"/>
</g>
<path style="fill:#1E252B;" d="M509.65,206.947L382.289,79.589c-1.505-1.505-3.545-2.35-5.674-2.35c-2.128,0-4.167,0.845-5.674,2.35
	l-48.14,48.142l-7.08,7.081c-17.971-12.588-42.987-10.86-59.024,5.179l-0.699,0.699l-0.699-0.699
	c-8.707-8.707-20.282-13.502-32.595-13.502h-0.001c-9.595,0-18.742,2.912-26.433,8.317l-7.065-7.064l-0.01-0.011l-48.141-48.143
	c-1.505-1.505-3.545-2.35-5.674-2.35c-2.128,0-4.167,0.845-5.674,2.35L2.35,206.948c-3.133,3.133-3.133,8.213,0,11.346
	l48.142,48.142c1.567,1.566,3.62,2.35,5.674,2.35c2.053,0,4.107-0.783,5.674-2.35l13.998-13.998l62.028,62.028
	c-1.948,3.735-3.056,7.974-3.056,12.47c0.003,14.875,12.07,26.981,26.927,27.054c0.074,14.813,12.108,26.848,26.921,26.922
	c0.033,7.177,2.843,13.92,7.922,19c5.079,5.081,11.824,7.889,19.003,7.923c0.034,7.179,2.842,13.922,7.921,19.001
	c5.111,5.11,11.907,7.925,19.134,7.925c4.856,0,9.413-1.292,13.357-3.541c4.131,2.347,8.751,3.528,13.373,3.528
	c6.93,0,13.861-2.638,19.137-7.914c5.242-5.244,7.879-12.122,7.911-19.009c6.888-0.032,13.767-2.67,19.01-7.912
	c5.239-5.24,7.876-12.113,7.911-18.996c7.181-0.032,13.928-2.843,19.007-7.923c5.083-5.082,7.895-11.83,7.927-19.011
	c6.884-0.035,13.757-2.672,18.999-7.912c8.632-8.633,10.327-21.589,5.033-31.765l61.862-61.863l13.999,13.999
	c1.505,1.505,3.545,2.35,5.674,2.35c2.128,0,4.167-0.845,5.674-2.35l48.142-48.144C512.783,215.16,512.783,210.08,509.65,206.947z
	 M56.164,249.418l-36.796-36.797L135.384,96.606l36.795,36.797L56.164,249.418z M161.867,337.948
	c-6.073,0-11.015-4.941-11.016-11.013c0.001-6.074,4.942-11.016,11.016-11.016c6.073,0,11.012,4.942,11.013,11.013
	C172.88,333.006,167.94,337.947,161.867,337.948z M188.79,364.87c-6.074,0-11.015-4.942-11.015-11.016
	c0-6.073,4.941-11.013,11.013-11.013c6.074,0,11.015,4.942,11.015,11.016C199.803,359.929,194.863,364.87,188.79,364.87z
	 M223.499,388.566c-2.079,2.081-4.844,3.226-7.783,3.226h-0.004c-2.942,0-5.708-1.146-7.788-3.226
	c-2.081-2.081-3.226-4.847-3.226-7.789c0-2.942,1.145-5.706,3.226-7.786c2.079-2.081,4.846-3.226,7.787-3.226
	c6.073,0,11.013,4.942,11.013,11.017C226.723,383.721,225.579,386.486,223.499,388.566z M242.635,418.715
	c-2.943,0-5.708-1.146-7.788-3.226c-2.079-2.079-3.225-4.846-3.225-7.788c0-6.073,4.94-11.013,11.011-11.013
	c6.075,0.001,11.016,4.942,11.016,11.015C253.648,413.774,248.707,418.715,242.635,418.715z M357.923,334.722
	c-4.295,4.295-11.283,4.295-15.578,0l-44.523-44.523c-3.134-3.133-8.213-3.133-11.346,0c-3.133,3.133-3.133,8.213,0,11.345
	l44.523,44.523c2.081,2.081,3.227,4.847,3.227,7.788c-0.001,2.942-1.147,5.708-3.229,7.789c-2.078,2.079-4.842,3.224-7.784,3.224
	c-2.941,0-5.705-1.145-7.783-3.223c-0.002-0.001-0.002-0.001-0.003-0.002l-44.523-44.523c-3.134-3.133-8.213-3.133-11.346,0
	s-3.133,8.213,0,11.346l44.523,44.523c0.001,0,0.001,0.001,0.003,0.003c4.29,4.294,4.288,11.28-0.004,15.572
	c-4.295,4.295-11.28,4.295-15.573,0.003c-0.002-0.001-0.002-0.001-0.003-0.002l-44.523-44.523c-3.134-3.133-8.213-3.133-11.346,0
	s-3.133,8.213,0,11.346l44.523,44.523c0.001,0,0.002,0.001,0.003,0.002c4.292,4.295,4.29,11.28-0.003,15.573
	c-2.643,2.642-6.305,3.653-9.731,3.044c1.455-3.319,2.269-6.981,2.269-10.831c0-14.875-12.067-26.984-26.928-27.057
	c-0.073-14.814-12.107-26.849-26.92-26.923c-0.073-14.815-12.108-26.851-26.923-26.924c-0.074-14.859-12.182-26.925-27.055-26.925
	c-4.595,0-8.925,1.155-12.721,3.184l-61.967-61.967l96.342-96.342l6.586,6.586c3.134,3.133,8.213,3.133,11.346,0
	c5.676-5.676,13.221-8.801,21.249-8.801c8.027,0,15.574,3.127,21.248,8.802l0.699,0.7l-44.577,44.575
	c-10.548,10.549-10.546,27.717,0.004,38.269c5.276,5.275,12.202,7.911,19.132,7.911c6.928-0.001,13.859-2.639,19.133-7.913
	l17.715-17.714l102.125,101.982C362.407,323.367,362.288,330.355,357.923,334.722z M363.816,302.093l-84.678-84.562
	c14.91,3.343,31.168-0.772,42.749-12.352c3.133-3.133,3.133-8.213,0-11.345c-3.134-3.133-8.213-3.133-11.346,0
	c-11.713,11.716-30.777,11.717-42.497,0c-3.132-3.133-8.213-3.132-11.344,0.001L227,223.532c-4.296,4.295-11.281,4.294-15.575,0.002
	c-4.296-4.296-4.297-11.285-0.004-15.579l56.623-56.619c11.716-11.717,30.782-11.718,42.498-0.001c3.134,3.133,8.213,3.133,11.346,0
	l6.586-6.586l96.341,96.343L363.816,302.093z M455.835,249.419L339.822,133.403l36.794-36.796l116.016,116.013L455.835,249.419z"/>
<g>
</g>
<g>
</g>
<g>
</g>
<g>
</g>
<g>
</g>
<g>
</g>
<g>
</g>
<g>
</g>
<g>
</g>
<g>
</g>
<g>
</g>
<g>
</g>
<g>
</g>
<g>
</g>
<g>
</g>
</svg>
